<svg xmlns="http://www.w3.org/2000/svg" width="2048" height="1280" viewBox="0 0 2048 1280" role="img" aria-labelledby="title desc">
  <title id="title">Stage 020: GPU Infrastructure for Private AI</title>
  <desc id="desc">GPU-as-a-Service building blocks for private AI on Red Hat OpenShift AI</desc>
  <style>
    .display{font-family:'Red Hat Display','Arial',sans-serif}
    .body{font-family:'Red Hat Text','Arial',sans-serif}
    .mono{font-family:'Red Hat Mono','Consolas',monospace}
    .lane{fill:none;stroke:#4d4d4d;stroke-width:3}
    .laneNew{fill:none;stroke:#f56e6e;stroke-width:3}
    .label{fill:#1f1f1f}
    .labelRed{fill:#ee0000}
    .box{fill:#151515;stroke:#4d4d4d;stroke-width:2}
    .boxOld{fill:#383838;stroke:#4d4d4d;stroke-width:2}
    .boxNew{fill:#3f0000;stroke:#ee0000;stroke-width:5}
    .muted{fill:#c7c7c7}
    .white{fill:#ffffff}
    .red{fill:#f56e6e}
  </style>
  <defs>
    <radialGradient id="glow" cx="82%" cy="5%" r="70%">
      <stop offset="0" stop-color="#ee0000" stop-opacity="0.16"/>
      <stop offset="0.45" stop-color="#ee0000" stop-opacity="0.04"/>
      <stop offset="1" stop-color="#000000" stop-opacity="0"/>
    </radialGradient>
    <filter id="lift" x="-20%" y="-20%" width="140%" height="140%">
      <feDropShadow dx="0" dy="5" stdDeviation="5" flood-color="#000" flood-opacity="0.5"/>
    </filter>
  </defs>
  <rect width="2048" height="1280" fill="#000000"/>
  <rect width="2048" height="1280" fill="url(#glow)"/>
  <text x="64" y="76" class="display" font-size="52" fill="#ffffff" font-weight="400"><tspan fill="#f56e6e" font-weight="700">Stage 020:</tspan> GPU Infrastructure for Private AI</text>
  <text x="64" y="116" class="body" font-size="26" fill="#c7c7c7">Adds GPU-as-a-Service building blocks: GPU enablement, Kueue queues, quotas, autoscaling readiness, and observability</text>

  <rect x="36" y="150" width="300" height="150" rx="2" class="label"/>
  <text x="186" y="215" class="display white" font-size="30" font-weight="700" text-anchor="middle">Developer</text>
  <text x="186" y="251" class="display white" font-size="30" font-weight="700" text-anchor="middle">Experience</text>
  <rect x="350" y="150" width="1660" height="150" rx="2" class="lane"/>

  <rect x="36" y="320" width="300" height="300" rx="2" class="label"/>
  <text x="186" y="438" class="display white" font-size="30" font-weight="700" text-anchor="middle">OpenShift</text>
  <text x="186" y="474" class="display white" font-size="30" font-weight="700" text-anchor="middle">AI/ML</text>
  <text x="186" y="510" class="display white" font-size="30" font-weight="700" text-anchor="middle">platform</text>
  <rect x="350" y="320" width="1660" height="300" rx="2" class="laneNew"/>

  <rect x="36" y="640" width="300" height="190" rx="2" class="labelRed"/>
  <text x="186" y="714" class="display white" font-size="30" font-weight="700" text-anchor="middle">GPU</text>
  <text x="186" y="750" class="display white" font-size="30" font-weight="700" text-anchor="middle">as a Service</text>
  <rect x="350" y="640" width="1660" height="190" rx="2" class="laneNew"/>

  <rect x="36" y="850" width="300" height="170" rx="2" class="labelRed"/>
  <text x="186" y="918" class="display white" font-size="30" font-weight="700" text-anchor="middle">OpenShift</text>
  <text x="186" y="954" class="display white" font-size="30" font-weight="700" text-anchor="middle">Container</text>
  <text x="186" y="990" class="display white" font-size="30" font-weight="700" text-anchor="middle">Platform</text>
  <rect x="350" y="850" width="1660" height="170" rx="2" class="laneNew"/>

  <rect x="36" y="1040" width="300" height="110" rx="2" class="labelRed"/>
  <text x="186" y="1108" class="display white" font-size="30" font-weight="700" text-anchor="middle">Infrastructure</text>
  <rect x="350" y="1040" width="1660" height="110" rx="2" class="laneNew"/>

  <g>
    <rect x="420" y="185" width="310" height="80" rx="2" class="box"/>
    <text x="575" y="218" class="body muted" font-size="25" text-anchor="middle">OpenShift</text>
    <text x="575" y="248" class="body muted" font-size="25" text-anchor="middle">Dev Spaces</text>
    <rect x="770" y="185" width="310" height="80" rx="2" class="box"/>
    <text x="925" y="218" class="body muted" font-size="25" text-anchor="middle">Continue and</text>
    <text x="925" y="248" class="body muted" font-size="25" text-anchor="middle">OpenCode</text>
    <rect x="1120" y="185" width="330" height="80" rx="2" class="box"/>
    <text x="1285" y="218" class="body muted" font-size="25" text-anchor="middle">MTA and Developer</text>
    <text x="1285" y="248" class="body muted" font-size="25" text-anchor="middle">Lightspeed for MTA</text>
    <rect x="1490" y="185" width="310" height="80" rx="2" class="box"/>
    <text x="1645" y="218" class="body muted" font-size="25" text-anchor="middle">Red Hat</text>
    <text x="1645" y="248" class="body muted" font-size="25" text-anchor="middle">Developer Hub</text>
  </g>

  <g filter="url(#lift)">
    <rect x="410" y="355" width="310" height="92" rx="2" class="boxNew"/>
    <text x="565" y="389" class="body white" font-size="25" font-weight="700" text-anchor="middle">Queue-based</text>
    <text x="565" y="419" class="body white" font-size="25" font-weight="700" text-anchor="middle">HardwareProfiles</text>
    <rect x="760" y="355" width="310" height="92" rx="2" class="boxNew"/>
    <text x="915" y="389" class="body white" font-size="25" font-weight="700" text-anchor="middle">OpenShift AI</text>
    <text x="915" y="419" class="body white" font-size="25" font-weight="700" text-anchor="middle">Kueue integration</text>
    <rect x="1110" y="355" width="310" height="92" rx="2" class="boxOld"/>
    <text x="1265" y="389" class="body white" font-size="25" text-anchor="middle">Private model</text>
    <text x="1265" y="419" class="body white" font-size="25" text-anchor="middle">serving consumers</text>
    <rect x="1460" y="355" width="380" height="92" rx="2" class="box"/>
    <text x="1650" y="389" class="body muted" font-size="25" text-anchor="middle">MaaS governance and</text>
    <text x="1650" y="419" class="body muted" font-size="25" text-anchor="middle">developer workflows</text>
  </g>

  <g>
    <rect x="410" y="480" width="310" height="92" rx="2" class="boxNew"/>
    <text x="565" y="514" class="body white" font-size="25" font-weight="700" text-anchor="middle">LocalQueue</text>
    <text x="565" y="544" class="body white" font-size="25" font-weight="700" text-anchor="middle">private-model-serving</text>
    <rect x="760" y="480" width="310" height="92" rx="2" class="boxNew"/>
    <text x="915" y="514" class="body white" font-size="25" font-weight="700" text-anchor="middle">ClusterQueue</text>
    <text x="915" y="544" class="body white" font-size="25" font-weight="700" text-anchor="middle">GPU quota</text>
    <rect x="1110" y="480" width="310" height="92" rx="2" class="boxNew"/>
    <text x="1265" y="514" class="body white" font-size="25" font-weight="700" text-anchor="middle">ResourceFlavor</text>
    <text x="1265" y="544" class="body white" font-size="25" font-weight="700" text-anchor="middle">NVIDIA L4 nodes</text>
    <rect x="1460" y="480" width="380" height="92" rx="2" class="boxNew"/>
    <text x="1650" y="514" class="body white" font-size="25" font-weight="700" text-anchor="middle">KEDA readiness and</text>
    <text x="1650" y="544" class="body white" font-size="25" font-weight="700" text-anchor="middle">GPUaaS dashboards</text>
  </g>

  <g filter="url(#lift)">
    <rect x="410" y="682" width="315" height="92" rx="2" class="boxNew"/>
    <text x="567.5" y="716" class="body white" font-size="25" font-weight="700" text-anchor="middle">Node Feature</text>
    <text x="567.5" y="746" class="body white" font-size="25" font-weight="700" text-anchor="middle">Discovery</text>
    <rect x="770" y="682" width="315" height="92" rx="2" class="boxNew"/>
    <text x="927.5" y="716" class="body white" font-size="25" font-weight="700" text-anchor="middle">NVIDIA GPU</text>
    <text x="927.5" y="746" class="body white" font-size="25" font-weight="700" text-anchor="middle">Operator</text>
    <rect x="1130" y="682" width="315" height="92" rx="2" class="boxNew"/>
    <text x="1287.5" y="716" class="body white" font-size="25" font-weight="700" text-anchor="middle">DCGM metrics</text>
    <text x="1287.5" y="746" class="body white" font-size="25" font-weight="700" text-anchor="middle">and telemetry</text>
    <rect x="1490" y="682" width="315" height="92" rx="2" class="boxNew"/>
    <text x="1647.5" y="716" class="body white" font-size="25" font-weight="700" text-anchor="middle">GPU worker</text>
    <text x="1647.5" y="746" class="body white" font-size="25" font-weight="700" text-anchor="middle">MachineSets</text>
  </g>

  <g>
    <rect x="410" y="888" width="270" height="82" rx="2" class="boxOld"/>
    <text x="545" y="921" class="body white" font-size="25" text-anchor="middle">GitOps</text>
    <text x="545" y="951" class="body white" font-size="25" text-anchor="middle">(Argo CD)</text>
    <rect x="720" y="888" width="270" height="82" rx="2" class="boxOld"/>
    <text x="855" y="921" class="body white" font-size="25" text-anchor="middle">Monitoring</text>
    <text x="855" y="951" class="body white" font-size="25" text-anchor="middle">(Prometheus)</text>
    <rect x="1030" y="888" width="270" height="82" rx="2" class="boxOld"/>
    <text x="1165" y="921" class="body white" font-size="25" text-anchor="middle">Operators</text>
    <text x="1165" y="951" class="body white" font-size="25" text-anchor="middle">and CRDs</text>
    <rect x="1340" y="888" width="270" height="82" rx="2" class="boxOld"/>
    <text x="1475" y="921" class="body white" font-size="25" text-anchor="middle">OAuth, RBAC,</text>
    <text x="1475" y="951" class="body white" font-size="25" text-anchor="middle">projects</text>
    <rect x="1650" y="888" width="270" height="82" rx="2" class="boxOld"/>
    <text x="1785" y="921" class="body white" font-size="25" text-anchor="middle">Serverless</text>
    <text x="1785" y="951" class="body white" font-size="25" text-anchor="middle">and storage</text>
  </g>

  <g>
    <rect x="450" y="1076" width="290" height="54" rx="2" class="boxOld"/>
    <text x="595" y="1108" class="body white" font-size="26" text-anchor="middle">Cloud cluster</text>
    <rect x="840" y="1076" width="330" height="54" rx="2" class="boxOld"/>
    <text x="1005" y="1108" class="body white" font-size="26" text-anchor="middle">Secured network</text>
    <rect x="1270" y="1076" width="330" height="54" rx="2" class="boxNew"/>
    <text x="1435" y="1108" class="body white" font-size="26" font-weight="700" text-anchor="middle">NVIDIA L4 nodes</text>
    <rect x="1700" y="1076" width="230" height="54" rx="2" class="boxNew"/>
    <text x="1815" y="1108" class="body white" font-size="26" font-weight="700" text-anchor="middle">GPU quota</text>
  </g>

  <g>
    <rect x="430" y="1192" width="54" height="54" rx="2" class="boxNew"/>
    <text x="510" y="1226" class="body white" font-size="27">New in this stage</text>
    <rect x="875" y="1192" width="54" height="54" rx="2" class="boxOld"/>
    <text x="955" y="1226" class="body white" font-size="27">Previously introduced</text>
    <rect x="1385" y="1192" width="54" height="54" rx="2" class="box"/>
    <text x="1465" y="1226" class="body white" font-size="27">Used by later stages</text>
  </g>
</svg>
