<svg xmlns="http://www.w3.org/2000/svg" width="2400" height="1460" viewBox="0 0 2400 1460" role="img" aria-labelledby="title desc"><title id="title">Stage 030: Private Model Serving</title><desc id="desc">Deploys private OpenAI-compatible model serving on Red Hat OpenShift AI</desc><style>.display{font-family:'Red Hat Display','Arial',sans-serif}.body{font-family:'Red Hat Text','Arial',sans-serif}</style><defs><filter id="lift" x="-20%" y="-20%" width="140%" height="140%"><feDropShadow dx="0" dy="6" stdDeviation="5" flood-color="#000" flood-opacity="0.55"/></filter><filter id="panelShadow" x="-8%" y="-8%" width="116%" height="116%"><feDropShadow dx="0" dy="10" stdDeviation="9" flood-color="#000" flood-opacity="0.45"/></filter></defs><g filter="url(#panelShadow)"><rect x="140" y="26" width="2170" height="82" rx="2" fill="#1f1f1f" stroke="#383838" stroke-width="2"/><text x="1200" y="60" class="display" font-size="42" fill="#ffffff" font-weight="700" text-anchor="middle"><tspan fill="#c7c7c7" font-weight="500">Stage 030:</tspan> Private Model Serving</text><text x="1200" y="91" class="body" font-size="21" fill="#c7c7c7" text-anchor="middle">Deploys private OpenAI-compatible model serving on Red Hat OpenShift AI</text><rect x="140" y="130" width="210" height="210" rx="2" fill="#3d2785" stroke="#3d2785" stroke-width="0"/><text x="245" y="230" class="body" font-size="22" fill="#ffffff" font-weight="700" text-anchor="middle">Red Hat Advanced</text>
<text x="245" y="256" class="body" font-size="22" fill="#ffffff" font-weight="700" text-anchor="middle">Developer Suite</text><rect x="140" y="365" width="210" height="600" rx="2" fill="#147878" stroke="#147878" stroke-width="0"/><text x="245" y="660" class="body" font-size="22" fill="#ffffff" font-weight="700" text-anchor="middle">Red Hat</text>
<text x="245" y="686" class="body" font-size="22" fill="#ffffff" font-weight="700" text-anchor="middle">OpenShift AI</text><rect x="140" y="995" width="210" height="390" rx="2" fill="#ee0000" stroke="#ee0000" stroke-width="0"/><text x="245" y="1185" class="body" font-size="22" fill="#ffffff" font-weight="700" text-anchor="middle">Red Hat</text>
<text x="245" y="1211" class="body" font-size="22" fill="#ffffff" font-weight="700" text-anchor="middle">OpenShift</text><rect x="365" y="130" width="250" height="210" rx="2" fill="#3d2785" stroke="#3d2785" stroke-width="0"/><text x="490" y="217" class="body" font-size="22" fill="#ffffff" font-weight="700" text-anchor="middle">Developer</text>
<text x="490" y="243" class="body" font-size="22" fill="#ffffff" font-weight="700" text-anchor="middle">productivity</text>
<text x="490" y="269" class="body" font-size="22" fill="#ffffff" font-weight="700" text-anchor="middle">and modernization</text><rect x="635" y="130" width="1675" height="210" rx="2" fill="#1f1f1f" stroke="#383838" stroke-width="2"/><g opacity="0.62"><rect x="665" y="154" width="525" height="71" rx="2" fill="#1f1f1f" stroke="#383838" stroke-width="2"/><text x="927.5" y="185.5" class="body" font-size="19" fill="#707070" font-weight="450" text-anchor="middle">Red Hat OpenShift</text>
<text x="927.5" y="207.5" class="body" font-size="19" fill="#707070" font-weight="450" text-anchor="middle">Dev Spaces</text></g><g opacity="0.62"><rect x="1210" y="154" width="525" height="71" rx="2" fill="#1f1f1f" stroke="#383838" stroke-width="2"/><text x="1472.5" y="185.5" class="body" font-size="19" fill="#707070" font-weight="450" text-anchor="middle">Migration Toolkit</text>
<text x="1472.5" y="207.5" class="body" font-size="19" fill="#707070" font-weight="450" text-anchor="middle">for Applications</text></g><g opacity="0.62"><rect x="1755" y="154" width="525" height="71" rx="2" fill="#1f1f1f" stroke="#383838" stroke-width="2"/><text x="2017.5" y="185.5" class="body" font-size="19" fill="#707070" font-weight="450" text-anchor="middle">Red Hat Developer Hub</text>
<text x="2017.5" y="207.5" class="body" font-size="19" fill="#707070" font-weight="450" text-anchor="middle">and software catalog</text></g><g opacity="0.62"><rect x="665" y="245" width="525" height="71" rx="2" fill="#1f1f1f" stroke="#383838" stroke-width="2"/><text x="927.5" y="276.5" class="body" font-size="19" fill="#707070" font-weight="450" text-anchor="middle">Continue and OpenCode</text>
<text x="927.5" y="298.5" class="body" font-size="19" fill="#707070" font-weight="450" text-anchor="middle">coding assistants</text></g><g opacity="0.62"><rect x="1210" y="245" width="525" height="71" rx="2" fill="#1f1f1f" stroke="#383838" stroke-width="2"/><text x="1472.5" y="276.5" class="body" font-size="19" fill="#707070" font-weight="450" text-anchor="middle">Developer Lightspeed</text>
<text x="1472.5" y="298.5" class="body" font-size="19" fill="#707070" font-weight="450" text-anchor="middle">for MTA</text></g><g opacity="0.62"><rect x="1755" y="245" width="525" height="71" rx="2" fill="#1f1f1f" stroke="#383838" stroke-width="2"/><text x="2017.5" y="276.5" class="body" font-size="19" fill="#707070" font-weight="450" text-anchor="middle">Developer Lightspeed</text>
<text x="2017.5" y="298.5" class="body" font-size="19" fill="#707070" font-weight="450" text-anchor="middle">for RHDH</text></g><line x1="665" y1="236" x2="2280" y2="236" stroke="#4d4d4d" stroke-width="2"/><rect x="365" y="365" width="250" height="160" rx="2" fill="#147878" stroke="#147878" stroke-width="0"/><text x="490" y="440" class="body" font-size="22" fill="#ffffff" font-weight="700" text-anchor="middle">Model and</text>
<text x="490" y="466" class="body" font-size="22" fill="#ffffff" font-weight="700" text-anchor="middle">context choices</text><rect x="635" y="365" width="1675" height="160" rx="2" fill="#1f1f1f" stroke="#383838" stroke-width="2"/><g filter="url(#lift)"><rect x="665" y="389" width="307" height="74" rx="2" fill="#151515" stroke="#147878" stroke-width="5"/><text x="818.5" y="422" class="body" font-size="19" fill="#ffffff" font-weight="700" text-anchor="middle">Private local models</text>
<text x="818.5" y="444" class="body" font-size="19" fill="#ffffff" font-weight="700" text-anchor="middle">on OpenShift</text></g><g filter="url(#lift)"><rect x="992" y="389" width="307" height="74" rx="2" fill="#151515" stroke="#147878" stroke-width="5"/><text x="1145.5" y="422" class="body" font-size="19" fill="#ffffff" font-weight="700" text-anchor="middle">Optimized</text>
<text x="1145.5" y="444" class="body" font-size="19" fill="#ffffff" font-weight="700" text-anchor="middle">model serving</text></g><g filter="url(#lift)"><rect x="1319" y="389" width="307" height="74" rx="2" fill="#151515" stroke="#147878" stroke-width="5"/><text x="1472.5" y="422" class="body" font-size="19" fill="#ffffff" font-weight="700" text-anchor="middle">OpenAI-compatible</text>
<text x="1472.5" y="444" class="body" font-size="19" fill="#ffffff" font-weight="700" text-anchor="middle">APIs</text></g><g opacity="0.62"><rect x="1646" y="389" width="307" height="74" rx="2" fill="#1f1f1f" stroke="#383838" stroke-width="2"/><text x="1799.5" y="422" class="body" font-size="19" fill="#707070" font-weight="450" text-anchor="middle">Approved external</text>
<text x="1799.5" y="444" class="body" font-size="19" fill="#707070" font-weight="450" text-anchor="middle">models</text></g><g opacity="0.62"><rect x="1973" y="389" width="307" height="74" rx="2" fill="#1f1f1f" stroke="#383838" stroke-width="2"/><text x="2126.5" y="422" class="body" font-size="19" fill="#707070" font-weight="450" text-anchor="middle">Optional external</text>
<text x="2126.5" y="444" class="body" font-size="19" fill="#707070" font-weight="450" text-anchor="middle">context</text></g><rect x="365" y="545" width="250" height="230" rx="2" fill="#147878" stroke="#147878" stroke-width="0"/><text x="490" y="642" class="body" font-size="22" fill="#ffffff" font-weight="700" text-anchor="middle">AI experiences</text>
<text x="490" y="668" class="body" font-size="22" fill="#ffffff" font-weight="700" text-anchor="middle">and governed</text>
<text x="490" y="694" class="body" font-size="22" fill="#ffffff" font-weight="700" text-anchor="middle">access</text><rect x="635" y="545" width="1675" height="230" rx="2" fill="#1f1f1f" stroke="#383838" stroke-width="2"/><g><rect x="665" y="569" width="388.75" height="74" rx="2" fill="#292929" stroke="#383838" stroke-width="2"/><rect x="665" y="569" width="10" height="74" rx="2" fill="#147878" stroke="#147878" stroke-width="0"/><text x="859.375" y="602" class="body" font-size="19" fill="#ffffff" font-weight="550" text-anchor="middle">OpenShift AI</text>
<text x="859.375" y="624" class="body" font-size="19" fill="#ffffff" font-weight="550" text-anchor="middle">control plane</text></g><g><rect x="1073.75" y="569" width="388.75" height="74" rx="2" fill="#292929" stroke="#383838" stroke-width="2"/><rect x="1073.75" y="569" width="10" height="74" rx="2" fill="#147878" stroke="#147878" stroke-width="0"/><text x="1268.125" y="602" class="body" font-size="19" fill="#ffffff" font-weight="550" text-anchor="middle">Gen AI Studio</text>
<text x="1268.125" y="624" class="body" font-size="19" fill="#ffffff" font-weight="550" text-anchor="middle">and Playground</text></g><g><rect x="1482.5" y="569" width="388.75" height="74" rx="2" fill="#292929" stroke="#383838" stroke-width="2"/><rect x="1482.5" y="569" width="10" height="74" rx="2" fill="#147878" stroke="#147878" stroke-width="0"/><text x="1676.875" y="602" class="body" font-size="19" fill="#ffffff" font-weight="550" text-anchor="middle">Data science projects</text>
<text x="1676.875" y="624" class="body" font-size="19" fill="#ffffff" font-weight="550" text-anchor="middle">and RBAC</text></g><g><rect x="1891.25" y="569" width="388.75" height="74" rx="2" fill="#292929" stroke="#383838" stroke-width="2"/><rect x="1891.25" y="569" width="10" height="74" rx="2" fill="#147878" stroke="#147878" stroke-width="0"/><text x="2085.625" y="602" class="body" font-size="19" fill="#ffffff" font-weight="550" text-anchor="middle">Model catalog</text>
<text x="2085.625" y="624" class="body" font-size="19" fill="#ffffff" font-weight="550" text-anchor="middle">and registry</text></g><g opacity="0.62"><rect x="665" y="663" width="388.75" height="74" rx="2" fill="#1f1f1f" stroke="#383838" stroke-width="2"/><text x="859.375" y="707" class="body" font-size="19" fill="#707070" font-weight="450" text-anchor="middle">Models-as-a-Service</text></g><g opacity="0.62"><rect x="1073.75" y="663" width="388.75" height="74" rx="2" fill="#1f1f1f" stroke="#383838" stroke-width="2"/><text x="1268.125" y="696" class="body" font-size="19" fill="#707070" font-weight="450" text-anchor="middle">Subscriptions, API keys,</text>
<text x="1268.125" y="718" class="body" font-size="19" fill="#707070" font-weight="450" text-anchor="middle">quotas, telemetry</text></g><g opacity="0.62"><rect x="1482.5" y="663" width="388.75" height="74" rx="2" fill="#1f1f1f" stroke="#383838" stroke-width="2"/><text x="1676.875" y="696" class="body" font-size="19" fill="#707070" font-weight="450" text-anchor="middle">Model observability</text>
<text x="1676.875" y="718" class="body" font-size="19" fill="#707070" font-weight="450" text-anchor="middle">and governance</text></g><g opacity="0.62"><rect x="1891.25" y="663" width="388.75" height="74" rx="2" fill="#1f1f1f" stroke="#383838" stroke-width="2"/><text x="2085.625" y="696" class="body" font-size="19" fill="#707070" font-weight="450" text-anchor="middle">MCP discovery</text>
<text x="2085.625" y="718" class="body" font-size="19" fill="#707070" font-weight="450" text-anchor="middle">and context servers</text></g><rect x="365" y="795" width="250" height="170" rx="2" fill="#147878" stroke="#147878" stroke-width="0"/><text x="490" y="862" class="body" font-size="22" fill="#ffffff" font-weight="700" text-anchor="middle">GPU acceleration</text>
<text x="490" y="888" class="body" font-size="22" fill="#ffffff" font-weight="700" text-anchor="middle">and workload</text>
<text x="490" y="914" class="body" font-size="22" fill="#ffffff" font-weight="700" text-anchor="middle">management</text><rect x="635" y="795" width="1675" height="170" rx="2" fill="#1f1f1f" stroke="#383838" stroke-width="2"/><g><rect x="665" y="819" width="525" height="51" rx="2" fill="#292929" stroke="#383838" stroke-width="2"/><rect x="665" y="819" width="10" height="51" rx="2" fill="#147878" stroke="#147878" stroke-width="0"/><text x="927.5" y="840.5" class="body" font-size="19" fill="#ffffff" font-weight="550" text-anchor="middle">Hardware and</text>
<text x="927.5" y="862.5" class="body" font-size="19" fill="#ffffff" font-weight="550" text-anchor="middle">workload profiles</text></g><g><rect x="1210" y="819" width="525" height="51" rx="2" fill="#292929" stroke="#383838" stroke-width="2"/><rect x="1210" y="819" width="10" height="51" rx="2" fill="#147878" stroke="#147878" stroke-width="0"/><text x="1472.5" y="840.5" class="body" font-size="19" fill="#ffffff" font-weight="550" text-anchor="middle">GPU discovery</text>
<text x="1472.5" y="862.5" class="body" font-size="19" fill="#ffffff" font-weight="550" text-anchor="middle">and enablement</text></g><g><rect x="1755" y="819" width="525" height="51" rx="2" fill="#292929" stroke="#383838" stroke-width="2"/><rect x="1755" y="819" width="10" height="51" rx="2" fill="#147878" stroke="#147878" stroke-width="0"/><text x="2017.5" y="840.5" class="body" font-size="19" fill="#ffffff" font-weight="550" text-anchor="middle">GPU worker</text>
<text x="2017.5" y="862.5" class="body" font-size="19" fill="#ffffff" font-weight="550" text-anchor="middle">capacity</text></g><g><rect x="665" y="890" width="525" height="51" rx="2" fill="#292929" stroke="#383838" stroke-width="2"/><rect x="665" y="890" width="10" height="51" rx="2" fill="#147878" stroke="#147878" stroke-width="0"/><text x="927.5" y="911.5" class="body" font-size="19" fill="#ffffff" font-weight="550" text-anchor="middle">Queue, quota,</text>
<text x="927.5" y="933.5" class="body" font-size="19" fill="#ffffff" font-weight="550" text-anchor="middle">admission control</text></g><g><rect x="1210" y="890" width="525" height="51" rx="2" fill="#292929" stroke="#383838" stroke-width="2"/><rect x="1210" y="890" width="10" height="51" rx="2" fill="#147878" stroke="#147878" stroke-width="0"/><text x="1472.5" y="911.5" class="body" font-size="19" fill="#ffffff" font-weight="550" text-anchor="middle">GPU telemetry and</text>
<text x="1472.5" y="933.5" class="body" font-size="19" fill="#ffffff" font-weight="550" text-anchor="middle">autoscaling readiness</text></g><g filter="url(#lift)"><rect x="1755" y="890" width="525" height="51" rx="2" fill="#151515" stroke="#147878" stroke-width="5"/><text x="2017.5" y="911.5" class="body" font-size="19" fill="#ffffff" font-weight="700" text-anchor="middle">Distributed inference</text>
<text x="2017.5" y="933.5" class="body" font-size="19" fill="#ffffff" font-weight="700" text-anchor="middle">scale path</text></g><rect x="365" y="995" width="250" height="220" rx="2" fill="#ee0000" stroke="#ee0000" stroke-width="0"/><text x="490" y="1087" class="body" font-size="22" fill="#ffffff" font-weight="700" text-anchor="middle">Container</text>
<text x="490" y="1113" class="body" font-size="22" fill="#ffffff" font-weight="700" text-anchor="middle">platform</text>
<text x="490" y="1139" class="body" font-size="22" fill="#ffffff" font-weight="700" text-anchor="middle">services</text><rect x="635" y="995" width="1675" height="220" rx="2" fill="#1f1f1f" stroke="#383838" stroke-width="2"/><g><rect x="665" y="1019" width="525" height="74" rx="2" fill="#292929" stroke="#383838" stroke-width="2"/><rect x="665" y="1019" width="10" height="74" rx="2" fill="#ee0000" stroke="#ee0000" stroke-width="0"/><text x="927.5" y="1052" class="body" font-size="19" fill="#ffffff" font-weight="550" text-anchor="middle">OpenShift GitOps</text>
<text x="927.5" y="1074" class="body" font-size="19" fill="#ffffff" font-weight="550" text-anchor="middle">and Argo CD</text></g><g><rect x="1210" y="1019" width="525" height="74" rx="2" fill="#292929" stroke="#383838" stroke-width="2"/><rect x="1210" y="1019" width="10" height="74" rx="2" fill="#ee0000" stroke="#ee0000" stroke-width="0"/><text x="1472.5" y="1052" class="body" font-size="19" fill="#ffffff" font-weight="550" text-anchor="middle">Operators and</text>
<text x="1472.5" y="1074" class="body" font-size="19" fill="#ffffff" font-weight="550" text-anchor="middle">lifecycle management</text></g><g><rect x="1755" y="1019" width="525" height="74" rx="2" fill="#292929" stroke="#383838" stroke-width="2"/><rect x="1755" y="1019" width="10" height="74" rx="2" fill="#ee0000" stroke="#ee0000" stroke-width="0"/><text x="2017.5" y="1052" class="body" font-size="19" fill="#ffffff" font-weight="550" text-anchor="middle">Identity, RBAC,</text>
<text x="2017.5" y="1074" class="body" font-size="19" fill="#ffffff" font-weight="550" text-anchor="middle">and multitenancy</text></g><g><rect x="665" y="1113" width="525" height="74" rx="2" fill="#292929" stroke="#383838" stroke-width="2"/><rect x="665" y="1113" width="10" height="74" rx="2" fill="#ee0000" stroke="#ee0000" stroke-width="0"/><text x="927.5" y="1146" class="body" font-size="19" fill="#ffffff" font-weight="550" text-anchor="middle">Serverless and</text>
<text x="927.5" y="1168" class="body" font-size="19" fill="#ffffff" font-weight="550" text-anchor="middle">Service Mesh</text></g><g opacity="0.62"><rect x="1210" y="1113" width="525" height="74" rx="2" fill="#1f1f1f" stroke="#383838" stroke-width="2"/><text x="1472.5" y="1146" class="body" font-size="19" fill="#707070" font-weight="450" text-anchor="middle">API connectivity</text>
<text x="1472.5" y="1168" class="body" font-size="19" fill="#707070" font-weight="450" text-anchor="middle">and gateway policy</text></g><g><rect x="1755" y="1113" width="525" height="74" rx="2" fill="#292929" stroke="#383838" stroke-width="2"/><rect x="1755" y="1113" width="10" height="74" rx="2" fill="#ee0000" stroke="#ee0000" stroke-width="0"/><text x="2017.5" y="1146" class="body" font-size="19" fill="#ffffff" font-weight="550" text-anchor="middle">Monitoring, routes,</text>
<text x="2017.5" y="1168" class="body" font-size="19" fill="#ffffff" font-weight="550" text-anchor="middle">secrets, config, storage</text></g><rect x="365" y="1235" width="250" height="150" rx="2" fill="#ee0000" stroke="#ee0000" stroke-width="0"/><text x="490" y="1292" class="body" font-size="22" fill="#ffffff" font-weight="700" text-anchor="middle">Infrastructure</text>
<text x="490" y="1318" class="body" font-size="22" fill="#ffffff" font-weight="700" text-anchor="middle">and trust</text>
<text x="490" y="1344" class="body" font-size="22" fill="#ffffff" font-weight="700" text-anchor="middle">boundaries</text><rect x="635" y="1235" width="1675" height="150" rx="2" fill="#1f1f1f" stroke="#383838" stroke-width="2"/><g><rect x="665" y="1259" width="388.75" height="74" rx="2" fill="#292929" stroke="#383838" stroke-width="2"/><rect x="665" y="1259" width="10" height="74" rx="2" fill="#ee0000" stroke="#ee0000" stroke-width="0"/><text x="859.375" y="1292" class="body" font-size="19" fill="#ffffff" font-weight="550" text-anchor="middle">Cloud cluster and</text>
<text x="859.375" y="1314" class="body" font-size="19" fill="#ffffff" font-weight="550" text-anchor="middle">secured network</text></g><g><rect x="1073.75" y="1259" width="388.75" height="74" rx="2" fill="#292929" stroke="#383838" stroke-width="2"/><rect x="1073.75" y="1259" width="10" height="74" rx="2" fill="#ee0000" stroke="#ee0000" stroke-width="0"/><text x="1268.125" y="1292" class="body" font-size="19" fill="#ffffff" font-weight="550" text-anchor="middle">GPU worker</text>
<text x="1268.125" y="1314" class="body" font-size="19" fill="#ffffff" font-weight="550" text-anchor="middle">nodes</text></g><g opacity="0.62"><rect x="1482.5" y="1259" width="388.75" height="74" rx="2" fill="#1f1f1f" stroke="#383838" stroke-width="2"/><text x="1676.875" y="1292" class="body" font-size="19" fill="#707070" font-weight="450" text-anchor="middle">Approved external</text>
<text x="1676.875" y="1314" class="body" font-size="19" fill="#707070" font-weight="450" text-anchor="middle">model provider</text></g><g opacity="0.62"><rect x="1891.25" y="1259" width="388.75" height="74" rx="2" fill="#1f1f1f" stroke="#383838" stroke-width="2"/><text x="2085.625" y="1292" class="body" font-size="19" fill="#707070" font-weight="450" text-anchor="middle">Red Hat build of</text>
<text x="2085.625" y="1314" class="body" font-size="19" fill="#707070" font-weight="450" text-anchor="middle">Keycloak / OIDC</text></g><rect x="440" y="1392" width="34" height="34" rx="2" fill="#151515" stroke="#147878" stroke-width="5"/><text x="498" y="1416" class="body" font-size="21" fill="#e0e0e0">New in this stage</text><rect x="800" y="1392" width="34" height="34" rx="2" fill="#292929" stroke="#383838" stroke-width="2"/><rect x="800" y="1392" width="10" height="11" rx="0" fill="#3d2785" stroke="#3d2785" stroke-width="0"/><rect x="800" y="1403" width="10" height="12" rx="0" fill="#147878" stroke="#147878" stroke-width="0"/><rect x="800" y="1415" width="10" height="11" rx="0" fill="#ee0000" stroke="#ee0000" stroke-width="0"/><rect x="800" y="1392" width="34" height="34" rx="2" fill="none" stroke="#383838" stroke-width="2"/><text x="858" y="1416" class="body" font-size="21" fill="#e0e0e0">Previously introduced</text><rect x="1225" y="1392" width="34" height="34" rx="2" fill="#1f1f1f" stroke="#383838" stroke-width="2" opacity="0.62"/><text x="1283" y="1416" class="body" font-size="21" fill="#e0e0e0">Not introduced yet</text></g></svg>
