<svg xmlns="http://www.w3.org/2000/svg" width="2048" height="1280" viewBox="0 0 2048 1280" role="img" aria-labelledby="title desc"><title>Step 04: Controlled AI-Assisted Development</title><desc>Introduces Dev Spaces plus IDE and terminal coding assistants that consume MaaS</desc><style>.display{font-family:'Red Hat Display','Arial',sans-serif}.body{font-family:'Red Hat Text','Arial',sans-serif}.mono{font-family:'Red Hat Mono','Consolas',monospace}</style><defs><radialGradient id="glow" cx="82%" cy="5%" r="70%"><stop offset="0" stop-color="#ee0000" stop-opacity="0.16"/><stop offset="0.45" stop-color="#ee0000" stop-opacity="0.04"/><stop offset="1" stop-color="#000000" stop-opacity="0"/></radialGradient><filter id="lift" x="-20%" y="-20%" width="140%" height="140%"><feDropShadow dx="0" dy="5" stdDeviation="5" flood-color="#000" flood-opacity="0.5"/></filter></defs><rect width="2048" height="1280" fill="#000000"/><rect width="2048" height="1280" fill="url(#glow)"/><text x="64" y="76" class="display" font-size="52" fill="#ffffff" font-weight="400"><tspan fill="#f56e6e" font-weight="700">Step 04:</tspan> Controlled AI-Assisted Development</text><text x="64" y="116" class="body" font-size="26" fill="#c7c7c7">Introduces Dev Spaces plus IDE and terminal coding assistants that consume MaaS</text><rect x="36" y="130" width="300" height="170" rx="2" fill="#1f1f1f"/><text x="186" y="207" class="display" font-size="30" fill="#ffffff" font-weight="700" text-anchor="middle">Developer</text>
<text x="186" y="238" class="display" font-size="30" fill="#ffffff" font-weight="700" text-anchor="middle">Experience</text><rect x="350" y="130" width="1660" height="170" rx="2" fill="none" stroke="#4d4d4d" stroke-width="3"/><rect x="36" y="318" width="300" height="270" rx="2" fill="#1f1f1f"/><text x="186" y="427" class="display" font-size="30" fill="#ffffff" font-weight="700" text-anchor="middle">OpenShift</text>
<text x="186" y="458" class="display" font-size="30" fill="#ffffff" font-weight="700" text-anchor="middle">AI/ML</text>
<text x="186" y="489" class="display" font-size="30" fill="#ffffff" font-weight="700" text-anchor="middle">platform</text><rect x="350" y="318" width="1660" height="270" rx="2" fill="none" stroke="#4d4d4d" stroke-width="3"/><rect x="36" y="606" width="300" height="110" rx="2" fill="#1f1f1f"/><text x="186" y="653" class="display" font-size="28" fill="#ffffff" font-weight="700" text-anchor="middle">GPU</text>
<text x="186" y="684" class="display" font-size="28" fill="#ffffff" font-weight="700" text-anchor="middle">accelerators</text><rect x="350" y="606" width="1660" height="110" rx="2" fill="none" stroke="#4d4d4d" stroke-width="3"/><rect x="36" y="734" width="300" height="250" rx="2" fill="#ee0000"/><text x="186" y="833" class="display" font-size="30" fill="#ffffff" font-weight="700" text-anchor="middle">OpenShift</text>
<text x="186" y="864" class="display" font-size="30" fill="#ffffff" font-weight="700" text-anchor="middle">Container</text>
<text x="186" y="895" class="display" font-size="30" fill="#ffffff" font-weight="700" text-anchor="middle">Platform</text><rect x="350" y="734" width="1660" height="250" rx="2" fill="none" stroke="#f56e6e" stroke-width="3"/><rect x="36" y="1002" width="300" height="120" rx="2" fill="#ee0000"/><text x="186" y="1072" class="display" font-size="30" fill="#ffffff" font-weight="700" text-anchor="middle">Infrastructure</text><rect x="350" y="1002" width="1660" height="120" rx="2" fill="none" stroke="#f56e6e" stroke-width="3"/><g filter="url(#lift)"><rect x="420" y="168" width="300" height="92" rx="2" fill="#3f0000" stroke="#ee0000" stroke-width="5"/><text x="570" y="208" class="body" font-size="26" fill="#ffffff" font-weight="700" text-anchor="middle">OpenShift</text>
<text x="570" y="239" class="body" font-size="26" fill="#ffffff" font-weight="700" text-anchor="middle">Dev Spaces</text><path d="M676 216 L716 256 L676 256 Z" fill="#c7c7c7" opacity="0.8"/></g><g filter="url(#lift)"><rect x="760" y="168" width="300" height="92" rx="2" fill="#3f0000" stroke="#ee0000" stroke-width="5"/><text x="910" y="208" class="body" font-size="26" fill="#ffffff" font-weight="700" text-anchor="middle">Continue and</text>
<text x="910" y="239" class="body" font-size="26" fill="#ffffff" font-weight="700" text-anchor="middle">OpenCode</text><path d="M1016 216 L1056 256 L1016 256 Z" fill="#c7c7c7" opacity="0.8"/></g><g><rect x="1100" y="168" width="330" height="92" rx="2" fill="#151515" stroke="#4d4d4d" stroke-width="2"/><text x="1265" y="208" class="body" font-size="26" fill="#c7c7c7" font-weight="400" text-anchor="middle">MTA and</text>
<text x="1265" y="239" class="body" font-size="26" fill="#c7c7c7" font-weight="400" text-anchor="middle">Developer Lightspeed</text></g><g><rect x="1470" y="168" width="300" height="92" rx="2" fill="#151515" stroke="#4d4d4d" stroke-width="2"/><text x="1620" y="208" class="body" font-size="26" fill="#c7c7c7" font-weight="400" text-anchor="middle">Red Hat</text>
<text x="1620" y="239" class="body" font-size="26" fill="#c7c7c7" font-weight="400" text-anchor="middle">Developer Hub</text></g><g><rect x="410" y="350" width="285" height="98" rx="2" fill="#383838" stroke="#4d4d4d" stroke-width="2"/><text x="552.5" y="393" class="body" font-size="26" fill="#ffffff" font-weight="400" text-anchor="middle">RHOAI dashboard</text>
<text x="552.5" y="424" class="body" font-size="26" fill="#ffffff" font-weight="400" text-anchor="middle">and GenAI Studio</text></g><g><rect x="720" y="350" width="285" height="98" rx="2" fill="#383838" stroke="#4d4d4d" stroke-width="2"/><text x="862.5" y="393" class="body" font-size="26" fill="#ffffff" font-weight="400" text-anchor="middle">Model catalog</text>
<text x="862.5" y="424" class="body" font-size="26" fill="#ffffff" font-weight="400" text-anchor="middle">and registry</text></g><g><rect x="1030" y="350" width="285" height="98" rx="2" fill="#383838" stroke="#4d4d4d" stroke-width="2"/><text x="1172.5" y="393" class="body" font-size="26" fill="#ffffff" font-weight="400" text-anchor="middle">Models-as-a-</text>
<text x="1172.5" y="424" class="body" font-size="26" fill="#ffffff" font-weight="400" text-anchor="middle">Service</text></g><g><rect x="1340" y="350" width="285" height="98" rx="2" fill="#383838" stroke="#4d4d4d" stroke-width="2"/><text x="1482.5" y="393" class="body" font-size="26" fill="#ffffff" font-weight="400" text-anchor="middle">Local model</text>
<text x="1482.5" y="424" class="body" font-size="26" fill="#ffffff" font-weight="400" text-anchor="middle">serving (vLLM)</text></g><g><rect x="1650" y="350" width="285" height="98" rx="2" fill="#383838" stroke="#4d4d4d" stroke-width="2"/><text x="1792.5" y="393" class="body" font-size="26" fill="#ffffff" font-weight="400" text-anchor="middle">Governed</text>
<text x="1792.5" y="424" class="body" font-size="26" fill="#ffffff" font-weight="400" text-anchor="middle">external models</text></g><g><rect x="720" y="468" width="285" height="90" rx="2" fill="#383838" stroke="#4d4d4d" stroke-width="2"/><text x="862.5" y="507" class="body" font-size="26" fill="#ffffff" font-weight="400" text-anchor="middle">Gateway policy,</text>
<text x="862.5" y="538" class="body" font-size="26" fill="#ffffff" font-weight="400" text-anchor="middle">quotas, and keys</text></g><g><rect x="1030" y="468" width="285" height="90" rx="2" fill="#383838" stroke="#4d4d4d" stroke-width="2"/><text x="1172.5" y="507" class="body" font-size="26" fill="#ffffff" font-weight="400" text-anchor="middle">Model telemetry</text>
<text x="1172.5" y="538" class="body" font-size="26" fill="#ffffff" font-weight="400" text-anchor="middle">and governance</text></g><g><rect x="1340" y="468" width="285" height="90" rx="2" fill="#383838" stroke="#4d4d4d" stroke-width="2"/><text x="1482.5" y="507" class="body" font-size="26" fill="#ffffff" font-weight="400" text-anchor="middle">MCP context</text>
<text x="1482.5" y="538" class="body" font-size="26" fill="#ffffff" font-weight="400" text-anchor="middle">tools</text></g><g><rect x="1650" y="468" width="285" height="90" rx="2" fill="#383838" stroke="#4d4d4d" stroke-width="2"/><text x="1792.5" y="507" class="body" font-size="26" fill="#ffffff" font-weight="400" text-anchor="middle">OpenAI-compatible</text>
<text x="1792.5" y="538" class="body" font-size="26" fill="#ffffff" font-weight="400" text-anchor="middle">API surface</text></g><g><rect x="410" y="632" width="430" height="58" rx="2" fill="#383838" stroke="#4d4d4d" stroke-width="2"/><text x="625" y="655" class="body" font-size="26" fill="#ffffff" font-weight="400" text-anchor="middle">Node Feature</text>
<text x="625" y="686" class="body" font-size="26" fill="#ffffff" font-weight="400" text-anchor="middle">Discovery</text></g><text x="1040" y="671" class="display" font-size="28" fill="#ffffff" font-weight="700" text-anchor="middle">GPU worker capacity</text><g><rect x="1240" y="632" width="430" height="58" rx="2" fill="#383838" stroke="#4d4d4d" stroke-width="2"/><text x="1455" y="655" class="body" font-size="26" fill="#ffffff" font-weight="400" text-anchor="middle">NVIDIA GPU</text>
<text x="1455" y="686" class="body" font-size="26" fill="#ffffff" font-weight="400" text-anchor="middle">Operator</text></g><g><rect x="1710" y="632" width="220" height="58" rx="2" fill="#383838" stroke="#4d4d4d" stroke-width="2"/><text x="1820" y="655" class="body" font-size="26" fill="#ffffff" font-weight="400" text-anchor="middle">DCGM</text>
<text x="1820" y="686" class="body" font-size="26" fill="#ffffff" font-weight="400" text-anchor="middle">telemetry</text></g><g><rect x="410" y="764" width="245" height="82" rx="2" fill="#383838" stroke="#4d4d4d" stroke-width="2"/><text x="532.5" y="799" class="body" font-size="26" fill="#ffffff" font-weight="400" text-anchor="middle">GitOps</text>
<text x="532.5" y="830" class="body" font-size="26" fill="#ffffff" font-weight="400" text-anchor="middle">(Argo CD)</text></g><g><rect x="685" y="764" width="245" height="82" rx="2" fill="#383838" stroke="#4d4d4d" stroke-width="2"/><text x="807.5" y="799" class="body" font-size="26" fill="#ffffff" font-weight="400" text-anchor="middle">Operators and</text>
<text x="807.5" y="830" class="body" font-size="26" fill="#ffffff" font-weight="400" text-anchor="middle">CRDs</text></g><g><rect x="960" y="764" width="245" height="82" rx="2" fill="#383838" stroke="#4d4d4d" stroke-width="2"/><text x="1082.5" y="799" class="body" font-size="26" fill="#ffffff" font-weight="400" text-anchor="middle">Serverless</text>
<text x="1082.5" y="830" class="body" font-size="26" fill="#ffffff" font-weight="400" text-anchor="middle">(Knative)</text></g><g><rect x="1235" y="764" width="245" height="82" rx="2" fill="#383838" stroke="#4d4d4d" stroke-width="2"/><text x="1357.5" y="799" class="body" font-size="26" fill="#ffffff" font-weight="400" text-anchor="middle">Monitoring</text>
<text x="1357.5" y="830" class="body" font-size="26" fill="#ffffff" font-weight="400" text-anchor="middle">(Prometheus)</text></g><g><rect x="1510" y="764" width="245" height="82" rx="2" fill="#383838" stroke="#4d4d4d" stroke-width="2"/><text x="1632.5" y="799" class="body" font-size="26" fill="#ffffff" font-weight="400" text-anchor="middle">OAuth, RBAC,</text>
<text x="1632.5" y="830" class="body" font-size="26" fill="#ffffff" font-weight="400" text-anchor="middle">and multitenancy</text></g><g><rect x="410" y="868" width="245" height="82" rx="2" fill="#383838" stroke="#4d4d4d" stroke-width="2"/><text x="532.5" y="903" class="body" font-size="26" fill="#ffffff" font-weight="400" text-anchor="middle">Service Mesh</text>
<text x="532.5" y="934" class="body" font-size="26" fill="#ffffff" font-weight="400" text-anchor="middle">(Istio)</text></g><g><rect x="685" y="868" width="245" height="82" rx="2" fill="#383838" stroke="#4d4d4d" stroke-width="2"/><text x="807.5" y="903" class="body" font-size="26" fill="#ffffff" font-weight="400" text-anchor="middle">Routes and</text>
<text x="807.5" y="934" class="body" font-size="26" fill="#ffffff" font-weight="400" text-anchor="middle">Gateway API</text></g><g><rect x="960" y="868" width="245" height="82" rx="2" fill="#383838" stroke="#4d4d4d" stroke-width="2"/><text x="1082.5" y="903" class="body" font-size="26" fill="#ffffff" font-weight="400" text-anchor="middle">Secrets, config,</text>
<text x="1082.5" y="934" class="body" font-size="26" fill="#ffffff" font-weight="400" text-anchor="middle">and storage</text></g><g><rect x="1235" y="868" width="245" height="82" rx="2" fill="#151515" stroke="#4d4d4d" stroke-width="2"/><text x="1357.5" y="903" class="body" font-size="26" fill="#c7c7c7" font-weight="400" text-anchor="middle">Keycloak / OIDC</text>
<text x="1357.5" y="934" class="body" font-size="26" fill="#c7c7c7" font-weight="400" text-anchor="middle">brokering</text></g><g><rect x="1510" y="868" width="245" height="82" rx="2" fill="#151515" stroke="#4d4d4d" stroke-width="2"/><text x="1632.5" y="903" class="body" font-size="26" fill="#c7c7c7" font-weight="400" text-anchor="middle">Catalog content</text>
<text x="1632.5" y="934" class="body" font-size="26" fill="#c7c7c7" font-weight="400" text-anchor="middle">and ownership</text></g><g><rect x="450" y="1038" width="260" height="54" rx="2" fill="#383838" stroke="#4d4d4d" stroke-width="2"/><text x="580" y="1075" class="body" font-size="26" fill="#ffffff" font-weight="400" text-anchor="middle">Cloud cluster</text></g><g><rect x="810" y="1038" width="300" height="54" rx="2" fill="#383838" stroke="#4d4d4d" stroke-width="2"/><text x="960" y="1075" class="body" font-size="26" fill="#ffffff" font-weight="400" text-anchor="middle">Secured network</text></g><g><rect x="1210" y="1038" width="300" height="54" rx="2" fill="#383838" stroke="#4d4d4d" stroke-width="2"/><text x="1360" y="1075" class="body" font-size="26" fill="#ffffff" font-weight="400" text-anchor="middle">GPU worker nodes</text></g><g><rect x="1600" y="1032" width="300" height="66" rx="2" fill="#383838" stroke="#4d4d4d" stroke-width="2"/><text x="1750" y="1059" class="body" font-size="26" fill="#ffffff" font-weight="400" text-anchor="middle">Approved external</text>
<text x="1750" y="1090" class="body" font-size="26" fill="#ffffff" font-weight="400" text-anchor="middle">model provider</text></g><g><rect x="430" y="1155" width="54" height="54" rx="2" fill="#3f0000" stroke="#ee0000" stroke-width="5"/><path d="M444 1169 L480 1205 L444 1205 Z" fill="#c7c7c7" opacity="0.8"/><text x="510" y="1184" class="body" font-size="27" fill="#ffffff">New in this step</text><rect x="875" y="1155" width="54" height="54" rx="2" fill="#383838" stroke="#4d4d4d" stroke-width="2"/><text x="955" y="1184" class="body" font-size="27" fill="#ffffff">Previously introduced</text><rect x="1385" y="1155" width="54" height="54" rx="2" fill="#151515" stroke="#4d4d4d" stroke-width="2"/><text x="1465" y="1184" class="body" font-size="27" fill="#ffffff">Not yet covered</text><rect x="430" y="1225" width="16" height="16" fill="#ee0000"/><text x="465" y="1242" class="body" font-size="20" fill="#c7c7c7">Red marker: used by this step but introduced earlier</text></g></svg>
